<svg width="1024" height="1024" viewBox="0 0 1024 1024" fill="none" xmlns="http://www.w3.org/2000/svg">
  <defs>
    <linearGradient id="miaGrad" x1="180" y1="220" x2="860" y2="820" gradientUnits="userSpaceOnUse">
      <stop offset="0" stop-color="#FFB000"/>
      <stop offset="0.23" stop-color="#FF6A00"/>
      <stop offset="0.48" stop-color="#FF2EA6"/>
      <stop offset="0.72" stop-color="#8B3DFF"/>
      <stop offset="1" stop-color="#00D4FF"/>
    </linearGradient>
    <linearGradient id="miaGrad2" x1="220" y1="260" x2="835" y2="760" gradientUnits="userSpaceOnUse">
      <stop offset="0" stop-color="#FFB000"/>
      <stop offset="0.35" stop-color="#FF2EA6"/>
      <stop offset="0.7" stop-color="#8B3DFF"/>
      <stop offset="1" stop-color="#00D4FF"/>
    </linearGradient>
    <filter id="softGlow" x="-40%" y="-40%" width="180%" height="180%">
      <feGaussianBlur stdDeviation="14" result="blur"/>
      <feColorMatrix in="blur" type="matrix" values="1 0 0 0 0.95  0 1 0 0 0.1  0 0 1 0 0.8  0 0 0 0.75 0" result="glow"/>
      <feMerge>
        <feMergeNode in="glow"/>
        <feMergeNode in="SourceGraphic"/>
      </feMerge>
    </filter>
    <filter id="shadow" x="-30%" y="-30%" width="160%" height="160%">
      <feDropShadow dx="0" dy="20" stdDeviation="14" flood-color="#000000" flood-opacity="0.35"/>
    </filter>
  </defs>
  <rect x="216" y="238" width="592" height="548" rx="150" stroke="url(#miaGrad)" stroke-width="44" filter="url(#softGlow)"/>
  <rect x="245" y="267" width="534" height="490" rx="125" stroke="rgba(255,255,255,0.32)" stroke-width="6"/>
  <path d="M512 690C499 690 486 684 476 674L318 520C271 474 270 398 316 351C362 304 437 303 483 349L512 378L541 349C587 303 662 304 708 351C754 398 753 474 706 520L548 674C538 684 525 690 512 690Z" fill="url(#miaGrad2)" filter="url(#shadow)"/>
  <path d="M512 601C505 601 499 598 494 593L396 496C366 466 366 417 396 387C426 357 475 357 505 387L512 394L519 387C549 357 598 357 628 387C658 417 658 466 628 496L530 593C525 598 519 601 512 601Z" fill="#090B14" fill-opacity="0.96"/>
  <circle cx="512" cy="488" r="23" fill="#FF2EA6"/>
  <path d="M470 552L507 519C510 516 515 516 518 519L555 552" stroke="#FF2EA6" stroke-width="24" stroke-linecap="round" stroke-linejoin="round"/>
</svg>
